<svg width="452" height="154" fill="none" xmlns="http://www.w3.org/2000/svg"><path d="M25.668.288v-.762h-.648l-.104.64.752.122Zm32.719 0 .752-.122-.104-.64h-.648v.762ZM83.42 154v.762h.896l-.144-.885-.752.123Zm-24.155 0-.755.109.095.653h.66V154Zm-4.392-30.523.755-.108-1.517.108h.762Zm0 .439v.763h.763v-.763h-.763Zm-27.448 0v-.762h-.66l-.095.652.755.11ZM23.033 154v.762h.66l.095-.652-.755-.11ZM.635 154l-.752-.123-.145.885h.897V154Zm51.384-50.944v.762h.878l-.123-.869-.755.107Zm-10.76-75.978.755-.107-.093-.655h-.662v.762Zm-.44 0v-.762h-.663l-.092.657.756.105Zm-10.54 75.978-.755-.105-.12.867h.875v-.762ZM25.67 1.051h32.718V-.474H25.668V1.05ZM57.633.41l25.033 153.712 1.505-.246L59.14.166 57.634.41ZM83.42 153.238H59.265v1.524H83.42v-1.524Zm-23.4.653-4.392-30.522-1.51.217 4.392 30.523 1.51-.218Zm-5.91-30.414v.439h1.526v-.439H54.11Zm.763-.323H27.425v1.525h27.448v-1.525Zm-28.203.652L22.28 153.89l1.509.22 4.391-30.083-1.509-.221Zm-3.637 29.432H.635v1.524h22.398v-1.524Zm-21.645.885L26.42.411 24.916.166-.117 153.877l1.505.246Zm51.386-51.174-10.76-75.978-1.51.214 10.76 75.977 1.51-.213ZM41.259 26.316h-.44v1.525h.44v-1.525Zm-1.195.657-10.54 75.978 1.51.209 10.54-75.977-1.51-.21Zm-9.785 76.845h21.74v-1.525h-21.74v1.525ZM129.175.288v-.762h-.763v.762h.763Zm30.303 0 .739-.188-.147-.574h-.592v.762Zm23.496 92.008-.739.188.147.574h.592v-.762Zm.439 0v.762h.762v-.762h-.762Zm0-92.008v-.762h-.763v.762h.763Zm21.52 0h.762v-.762h-.762v.762Zm0 153.712v.762h.762V154h-.762Zm-24.814 0-.738.191.148.571h.59V154ZM151.133 41.79l.739-.19-.148-.572h-.591v.763Zm-.439 0v-.762h-.762v.763h.762Zm0 112.21v.762h.763V154h-.763Zm-21.519 0h-.763v.762h.763V154Zm0-152.95h30.303V-.473h-30.303V1.05Zm29.564-.573 23.496 92.007 1.478-.377L160.217.1l-1.478.377Zm24.235 92.581h.439v-1.525h-.439v1.525Zm1.201-.762V.288h-1.525v92.008h1.525Zm-.762-91.245h21.52V-.474h-21.52V1.05ZM204.17.288V154h1.525V.288h-1.525Zm.763 152.95h-24.814v1.524h24.814v-1.524Zm-24.076.571-28.985-112.21-1.477.382 28.986 112.21 1.476-.382ZM151.133 41.028h-.439v1.525h.439v-1.525Zm-1.201.763V154h1.525V41.79h-1.525Zm.762 111.447h-21.519v1.524h21.519v-1.524Zm-20.757.762V.288h-1.525V154h1.525ZM256.922.288v-.762h-.763v.762h.763Zm63.9 9.662-.558.52.558-.52ZM256.922 154h-.763v.762h.763V154Zm45.454-25.472-.556-.522-.009.01-.008.01.573.502Zm0-102.767-.573.502.008.01.009.01.556-.522Zm-21.3-3.514v-.762h-.762v.762h.762Zm0 109.794h-.762v.763h.762v-.763ZM256.922 1.051h36.891V-.474h-36.891V1.05Zm36.891 0c11.872 0 20.64 3.183 26.451 9.419l1.116-1.04c-6.193-6.646-15.431-9.904-27.567-9.904V1.05Zm26.451 9.419c5.825 6.251 8.799 15.477 8.799 27.807h1.524c0-12.556-3.028-22.215-9.207-28.847l-1.116 1.04Zm8.799 27.807v77.734h1.524V38.277h-1.524Zm0 77.734c0 12.33-2.974 21.556-8.799 27.807l1.116 1.04c6.179-6.632 9.207-16.29 9.207-28.847h-1.524Zm-8.799 27.807c-5.811 6.237-14.579 9.42-26.451 9.42v1.524c12.136 0 21.374-3.258 27.567-9.904l-1.116-1.04Zm-26.451 9.42h-36.891v1.524h36.891v-1.524Zm-36.129.762V.288h-1.525V154h1.525Zm35.689-21.196c4.109 0 7.346-1.224 9.577-3.774l-1.147-1.004c-1.868 2.134-4.633 3.253-8.43 3.253v1.525Zm9.56-3.755c2.391-2.55 3.5-6.593 3.5-11.94h-1.525c0 5.194-1.087 8.763-3.088 10.897l1.113 1.043Zm3.5-11.94v-79.93h-1.525v79.93h1.525Zm0-79.93c0-5.347-1.109-9.39-3.5-11.94l-1.113 1.043c2.001 2.134 3.088 5.704 3.088 10.897h1.525Zm-3.483-11.92c-2.231-2.55-5.468-3.774-9.577-3.774v1.525c3.797 0 6.562 1.118 8.43 3.253l1.147-1.005Zm-9.577-3.774h-12.297v1.525h12.297v-1.525Zm-13.059.762v109.794h1.525V22.247h-1.525Zm.762 110.557h12.297v-1.525h-12.297v1.525Zm117.408-44.241h.762v-.123l-.038-.117-.724.24ZM369.279.288v-.762h-1.056l.332 1.002.724-.24Zm25.692 0 .732-.213-.161-.55h-.571v.763Zm16.469 56.434-.732.214.16.549h.572v-.763Zm.439 0v.763h.572l.16-.549-.732-.214ZM428.348.288v-.762h-.572l-.16.549.732.213Zm23.496 0 .724.24.331-1.002h-1.055v.762Zm-29.205 88.275-.724-.24-.039.117v.123h.763Zm0 65.437v.762h.762V154h-.762Zm-24.155 0h-.762v.762h.762V154Zm.724-65.677L370.003.05l-1.448.479 29.205 88.274 1.448-.479ZM369.279 1.051h25.692V-.474h-25.692V1.05Zm24.96-.549 16.469 56.434 1.464-.427L395.703.075l-1.464.427Zm17.201 56.983h.439V55.96h-.439v1.525Zm1.171-.549L429.08.502l-1.464-.427-16.469 56.434 1.464.427Zm15.737-55.885h23.496V-.474h-23.496V1.05ZM451.12.049l-29.205 88.274 1.448.48L452.568.527l-1.448-.48Zm-29.244 88.514V154h1.525V88.563h-1.525Zm.763 64.675h-24.155v1.524h24.155v-1.524Zm-23.393.762V88.563h-1.524V154h1.524Z" fill="#03839E"/></svg>